<!-- Generated by IcoMoon.io -->
<svg version="1.1" xmlns="http://www.w3.org/2000/svg" width="65"  viewBox="0 0 1707 1024">
<title></title>
<g id="icomoon-ignore">
</g>
<path fill="#ee4e34" d="M0 0h1706.667v1024h-1706.667v-1024z"></path>
<path fill="#fcedda" d="M231.247 288.074h412.025c9.894 0 17.914 8.020 17.914 17.914v412.025c0 9.894-8.020 17.914-17.914 17.914h-412.025c-9.894 0-17.914-8.020-17.914-17.914v-412.025c0-9.894 8.020-17.914 17.914-17.914z"></path>
<path fill="#ee4e34" d="M339.412 564.615q0-3.159 4.224-3.159t26.188 5.803v0q5.032-43.341 28.282-94.137v0q8.227-18.512 19.577-18.512v0q2.13 0 4.114 4.518 1.983 4.481 1.983 11.092v0q0 7.934-8.338 43.634t-10.982 62.146v0q17.446 3.967 30.816 3.967t24.462-7.015 19.026-18.108v0q16.418-23.543 16.418-56.6v0q-0.257-61.081-48.666-61.081v0q-17.189 0.257-60.824 15.353v0q-8.448 2.902-14.802 2.902t-6.354-3.71v0q0-5.032 7.419-11.9 7.383-6.868 19.026-13.223v0q28.575-15.353 55.535-15.353v0q37.023 0 60.824 19.834v0q28.024 23.543 27.767 71.402v0q0 20.385-6.354 40.219t-19.283 35.297q-12.965 15.463-32.799 24.976-19.834 9.55-46.83 9.55v0q-10.835 0-27.474-4.775v0q-1.873 5.032-9.256 5.032v0q-13.773 0-18.658-4.628t-5.693-15.206v0q-12.672-7.162-21.009-14.802-8.338-7.676-8.338-13.516v0z"></path>
<path fill="#fcedda" d="M773.149 528.875q0-2.241 2.997-2.241t18.582 4.118v0q3.57-30.753 20.067-66.796v0q5.838-13.135 13.891-13.135v0q1.512 0 2.919 3.206 1.407 3.18 1.407 7.871v0q0 5.629-5.916 30.961t-7.792 44.096v0q12.379 2.815 21.866 2.815t17.357-4.978 13.5-12.848v0q11.649-16.705 11.649-40.161v0q-0.182-43.34-34.532-43.34v0q-12.197 0.182-43.158 10.894v0q-5.994 2.059-10.503 2.059t-4.509-2.632v0q0-3.57 5.264-8.444 5.238-4.874 13.5-9.382v0q20.276-10.894 39.405-10.894v0q26.27 0 43.158 14.073v0q19.885 16.705 19.703 50.664v0q0 14.464-4.509 28.537t-13.682 25.045q-9.2 10.972-23.273 17.722-14.073 6.776-33.228 6.776v0q-7.688 0-19.494-3.388v0q-1.329 3.57-6.568 3.57v0q-9.773 0-13.239-3.284t-4.040-10.789v0q-8.991-5.082-14.907-10.503-5.916-5.447-5.916-9.591v0zM964.18 540.889v0q14.621 0 28.329-11.623v0q5.056-4.326 8.262-7.975 3.18-3.675 4.874-3.675v0q2.632 0 2.632 5.264t-2.815 11.728-9.382 12.666v0q-16.158 15.194-44.305 15.194v0q-22.309 0-30.388-16.132v0q-2.815-5.629-2.815-16.132t4.118-21.866q4.144-11.363 10.998-19.598 6.828-8.262 15.845-12.874 9.017-4.587 19.233-4.587t15.767 5.056q5.525 5.082 5.525 13.135 0 8.079-4.040 13.239-4.013 5.16-10.399 8.626t-14.177 6.203q-7.792 2.71-15.298 6.098v0 4.691q0.208 6.75 5.629 9.565 5.447 2.815 12.405 2.997zM960.975 487.984v0q-9.747 0-13.5 22.7v0q3.935-2.632 7.401-4.691t6.098-3.935v0q5.629-4.144 5.812-9.382v0q0-4.691-5.812-4.691zM1040.723 561.921v0q-26.817 0.182-36.59-20.093v0q-3.362-7.115-3.362-17.904t1.876-22.986v0q3.753-24.394 14.438-45.034v0q5.447-10.529 12.197-18.035v0q14.829-16.497 33.020-16.315v0q8.079 0 12.666 4.404 4.613 4.404 4.613 12.666t-4.9 16.601q-4.874 8.366-12.457 17.279-7.61 8.913-16.81 18.66-9.2 9.773-18.009 21.214v0 7.506q0 10.503 4.509 15.376t10.503 4.874v0q16.132 0 28.511-15.95v0q5.082-6.568 7.714-6.568v0q2.606 0 2.606 6.385t-3.466 13.057q-3.466 6.646-9.095 12.197-5.629 5.525-12.953 9.095t-15.011 3.57zM1050.861 461.141q3.935-4.874 6.203-8.809 2.241-3.935 2.241-8.157t-2.997-4.222v0q-6.568 0-14.542 13.5t-11.91 35.47v0q6.359-9.773 11.728-16.341 5.343-6.568 9.278-11.441zM1092.716 561.921v0q-18.764 0-18.764-35.105v0q0-19.129 4.691-34.714v0q7.297-24.003 16.497-24.003v0q5.447 0 8.626 7.297v0q2.632 5.629 2.45 11.076v0q0 7.506-4.509 26.452v0q-4.3 16.523-4.3 20.458t1.955 5.447q1.981 1.512 4.691 1.512 2.736 0 6.854-3.57t8.262-7.792q4.118-4.222 7.584-7.792 3.492-3.57 4.795-3.57v0q2.632 0 2.632 6.385v0q0 13.135-13.239 25.618-13.213 12.483-28.225 12.301zM1100.404 452.879v0q-5.082-7.506-5.082-16.132t2.736-14.36q2.71-5.707 5.16-8.444 2.424-2.71 5.629-2.71v0q5.238 0 9.565 7.792t4.326 13.031v0q0 9.773-6.854 15.298t-15.481 5.525zM1154.429 478.785v0q0 12.562-4.483 28.511v0q0.365 6.020 0.365 11.649t0.756 9.747v0q2.815 7.506 7.115 9.2v0q3.753 0 8.262-6.463 4.509-6.489 9.2-15.481v0q-2.241-8.652-2.241-16.341v0q0-13.5 4.118-19.703v0q5.056-7.871 15.376-7.871t13.708 7.871v0q1.303 2.997 1.303 6.75v0q0 6.776-3.362 13.813-3.388 7.037-10.894 18.478v0q3.388 9.929 10.138 9.929v0q8.262-0.182 14.256-5.812v0q2.267-2.241 3.857-3.935t3.284-1.694v0q2.632 0 2.632 6.203v0q0 11.623-6.672 16.966-6.672 5.369-16.784 5.369v0q-13.343 0-21.214-11.649v0q-21.944 28.537-36.773 28.537v0q-5.812 0-11.441-16.523t-8.652-44.669v0q-2.241-17.826 2.632-25.514v0q4.144-5.994 16.132-5.994v0q4.509 0 6.958 2.71 2.424 2.736 2.424 5.916zM1263.080 540.889v0q14.647 0 28.329-11.623v0q5.082-4.326 8.262-7.975 3.206-3.675 4.874-3.675v0q2.632 0 2.632 5.264t-2.815 11.728-9.382 12.666v0q-16.132 15.194-44.279 15.194v0q-22.335 0-30.388-16.132v0q-2.815-5.629-2.815-16.132t4.118-21.866 10.972-19.598q6.854-8.262 15.871-12.874 8.991-4.587 19.233-4.587 10.216 0 15.741 5.056 5.551 5.082 5.551 13.135 0 8.079-4.040 13.239t-10.425 8.626q-6.359 3.466-14.151 6.203-7.792 2.71-15.298 6.098v0 4.691q0.182 6.75 5.629 9.565t12.379 2.997zM1259.9 487.984v0q-9.773 0-13.526 22.7v0q3.961-2.632 7.428-4.691t6.098-3.935v0q5.629-4.144 5.812-9.382v0q0-4.691-5.812-4.691zM1325.184 529.813v0l1.147 22.908q0 4.509-4.691 8.053-4.691 3.57-12.77 3.57v0q-4.691 0-6.463-4.874-1.798-4.874-1.798-14.256v0q0-19.703 1.981-30.883 1.955-11.154 7.792-22.595v0q-8.652-8.262-8.652-14.256v0q0-12.588 13.526-12.588v0q6.932 0 12.197 7.323v0q3.753 5.056 5.447 11.832v0q2.606 0.938 6.568 0.938v0q5.421 0 12.562-3.57v0l4.874-2.45q2.267-1.121 3.935-1.121v0q5.447 0 10.894 15.95v0q-1.694 7.323-3.649 14.073-1.981 6.75-4.613 16.315-2.632 9.591-2.71 12.874-0.104 3.284 1.955 3.284v0q2.815 0 6.958-3.57 4.118-3.57 8.262-7.792 4.118-4.222 7.584-7.792t4.795-3.57v0q2.632 0 2.632 6.385v0q0 12.953-11.363 25.514-11.363 12.588-25.983 12.405v0q-8.626 0-12.953-6.958-4.326-6.932-4.509-16.888v0q0-19.703 8.835-37.346v0q-4.144 1.694-9.304 1.694t-7.401-0.365v0q-1.694 7.115-3.388 14.36-1.694 7.219-1.694 13.396zM1434.017 547.639v0q-9.382 12.953-25.123 12.953v0q-12.77 0-20.38-5.343-7.584-5.343-7.584-16.992v0q0-4.874 1.407-8.991 1.407-4.144 4.587-10.138v0l5.447-44.461q5.812-4.509 15.767-4.509v0q8.444 0 9.565 11.259v0q0.365 3.362 0.365 7.975 0 4.587-1.486 9.669v0q-7.506 25.879-7.323 34.714v0q0 6.75 7.871 6.75 7.897 0 11.649-5.082 3.753-5.056 6.385-12.562v0q4.874-20.823 9.095-34.349 4.222-13.5 5.343-16.132v0q1.876-4.509 7.141-4.691v0q5.238 0.182 9.929 7.428 4.691 7.219 4.691 11.154v0q-0.365 13.135-16.315 66.248v0q12.197-9.591 24.211-23.455v0q4.118-4.9 6.932-8.183t4.509-3.284v0q2.632 0 2.632 6.020v0q0 11.806-13.239 27.573t-32.368 24.576v0q-2.241 7.506-4.874 14.282-2.632 6.75-6.75 11.806v0q-9.017 10.894-27.417 10.894v0q-12.379 0-21.11-7.141-8.705-7.115-8.705-17.826v0q0-5.994 4.013-9.565 4.040-3.57 11.076-5.916t16.419-4.118q9.382-1.798 20.093-4.404v0q2.606-11.259 3.544-16.158zM1408.503 598.303v0q8.835 0 15.95-15.376v0q-6.75 1.303-12.014 1.981-5.238 0.652-8.991 1.199v0q-7.506 1.147-7.323 3.961v0q0 3.544 4.222 5.994t8.157 2.241z"></path>
</svg>
